<svg height="211" width="1283" xmlns="http://www.w3.org/2000/svg"><path d="m0 0c6.35869907 5.46412924 9.86425452 12.04570664 10.50390625 20.42578125.68333903 24.08086759-7.4111212 47.57599135-13.63208008 70.60424805-9.72744624 33.83849625-9.72744624 33.83849625-4.18432617 67.4074707 2.94576973 3.26423132 5.07159013 4.38060708 9.3125 5.5625 6.16316997.25769352 10.06199498-1.23771046 15-5l3-1c.70991096-1.31081984 1.37160034-2.64821004 2-4 1.02191736-1.2456344 2.06594598-2.47328226 3.125-3.6875 3.32296849-4.22481797 5.74692259-8.61438305 8.0625-13.4375.48073975-.973927.48073975-.973927.97119141-1.9675293 5.6148579-12.09988847 7.42921165-24.50437654 8.25424194-37.65762329.25509391-4.05042907.55781446-8.0972696.86050415-12.14437866.05828476-.78906235.11656952-1.57812469.17662048-2.39109802.71048792-9.30728812 2.01056546-18.51086406 3.54994202-27.71437073 2.05962852-.67548578 4.12284322-1.34004312 6.1875-2 1.14855469-.37125 2.29710937-.7425 3.48046875-1.125 3.00700199-.78964648 5.26367574-.94821952 8.33203125-.875-.05534912.67877197-.11069824 1.35754395-.16772461 2.05688477-.25771298 3.16844832-.51374647 6.3370304-.76977539 9.50561523-.13051758 1.60004883-.13051758 1.60004883-.26367188 3.23242188-.18064222 2.24130173-.35711131 4.48294261-.53002929 6.72485351-.17397126 2.25246165-.35590301 4.50432857-.54736328 6.75537109-.88727949 11.38769531-.97698791 22.77671141-1.01660157 34.19433594-.01154735 2.31028352-.03204219 4.6205398-.06152343 6.93066406-.94610076 24.82750144-.94610076 24.82750144 9.35668945 46.59985352 4.22649642 3.14529966 8.33186448 3.59164452 13.4765625 3.40625 5.99529803-.9651873 10.01123022-4.45264138 13.7109375-9.09375.96816987-1.41702491 1.90595775-2.85527879 2.8125-4.3125.41894531-.67160156.83789062-1.34320313 1.26953125-2.03515625 11.93630312-21.48534561 13.96010298-48.61383355 13.98046875-72.65234375.00067474-.72082764.00134949-1.44165527.00204468-2.18432617-.0321898-21.80723185-.23457541-49.66150356-15.25204468-67.12817383-3.25653675-2.88022584-6.21251284-3.90329105-10.5625-4.4375-7.47817029.95176713-11.52494825 5.13252548-16.4375 10.4375-1.65-.99-3.3-1.98-5-3 2.76235457-7.89048806 8.62442892-12.54609354 15.8125-16.5 6.86843813-3.15343386 12.53238086-3.82805776 19.81640625-1.75 8.47734533 3.52036325 12.98900347 10.305922 16.87109375 18.36328125 15.5871274 37.99362305 11.34229157 91.78460206-3.9909668 129.32958984-5.77074634 13.42841996-12.57095525 25.09498907-26.0793457 31.61181641-8.35427782 3.25037819-16.28181656 2.22692055-24.4296875-1.0546875-11.51294293-5.69073688-16.97728274-16.24128802-21-28-1.12738396-3.97527355-2.11962545-7.96316062-3-12-.61875 1.34191406-.61875 1.34191406-1.25 2.7109375-3.68333141 7.78539489-7.57350546 15.1267668-13.75 21.2890625-.66 0-1.32 0-2 0-.23203125.58523437-.4640625 1.17046875-.703125 1.7734375-1.61866509 2.77903344-3.40402175 4.03359981-6.046875 5.8515625-1.26070312.88558594-1.26070312.88558594-2.546875 1.7890625-7.91198687 4.64200385-17.55257585 5.07454867-26.3984375 2.93359375-8.36622495-3.39604602-14.60139294-9.2751164-18.2734375-17.5-10.29662297-28.43272025.17930688-57.85479468 8.54296875-85.32421875.22111954-.72688019.44223907-1.45376038.6700592-2.20266724 1.0883815-3.57402255 2.18303671-7.14587182 3.29112244-10.71383667 8.0065493-23.77322501 8.0065493-23.77322501 5.42163086-47.97021484-2.01503137-3.44611487-4.28226787-4.41179762-7.95703125-5.63671875-9.41632095-.84074294-17.83267182 2.35489663-25.10546875 8.32421875-.62519531.55300781-1.25039063 1.10601563-1.89453125 1.67578125-.65613281.56332031-1.31226563 1.12664063-1.98828125 1.70703125-13.62913826 12.57056441-23.00561746 33.84479712-24.13574219 52.32055664-.08156151 2.28347073-.11071892 4.56258059-.12597656 6.84741211-.020625.76441406-.04125 1.52882813-.0625 2.31640625-.03799679 5.59502746.98741196 9.7046053 3.3125 14.80859375 3.11481802 2.93682842 4.6309282 3.00585828 8.9375 2.9375 6.32088631-1.12661201 10.58632888-4.91540139 14.55078125-9.75390625 4.66913893-6.74431178 7.83932703-14.463351 10.51171875-22.18359375 2.4375.375 2.4375.375 5 1 1 2 1 2 .25 4.3984375-5.65556808 13.46732149-11.66729021 26.33346255-25.5 32.72265625-6.04425212 1.93175671-12.71286379 1.938389-18.6875-.30859375-6.1378761-3.63262055-9.52917162-8.25565008-12.0625-14.8125-4.28037398-16.83802743 1.27833105-35.45818687 9.78125-50.05859375 4.44226131-6.91899827 9.45742555-13.08357721 15.21875-18.94140625.75925781-.77214844 1.51851562-1.54429688 2.30078125-2.33984375 14.18415313-13.58057215 38.96447536-25.96563346 57.69921875-13.66015625z" fill="#f0efef" transform="translate(89 16)"/><path d="m0 0c1.96442551-.01925285 1.96442551-.01925285 3.96853638-.03889465 1.44131081-.00817683 2.88262596-.01561874 4.32394409-.02238465.72840969-.00407552 1.45681938-.00815105 2.20730209-.01235008 3.86986126-.02089431 7.73968692-.03517052 11.60959244-.04453468 3.95576664-.0109553 7.91095358-.04521564 11.86651802-.0851717 3.07342201-.02647034 6.14671374-.03454757 9.22023964-.03810978 1.45492634-.00480342 2.90984943-.01623325 4.36466217-.035038 13.34282305-.16147399 26.56151162 1.72968129 38.47387314 8.14098549.65419922.3403125 1.30839844.680625 1.98242187 1.03125 21.73917033 11.66492067 37.84593741 31.66141997 45.08007813 55.21875 6.93191018 26.6268653 4.41222278 53.81055433-9.27734375 77.7265625-2.70487518 4.43371095-5.63391183 8.41869232-9.03515625 12.3359375-.66515625.80824219-1.3303125 1.61648438-2.015625 2.44921875-13.61611949 15.99159358-32.22937161 25.89116008-52.984375 28.55078125-2.25645812.10479641-4.51517871.16743148-6.77392578.1928711-1.30470246.01606292-2.60940491.03212585-3.9536438.04867553-1.40590761.01148257-2.81182257.02209193-4.21774292.03189087-.71548885.00532368-1.43097771.01064736-2.16814804.01613236-3.77938891.02659041-7.55874624.04601901-11.33819962.0605278-3.11943577.01338603-6.23822464.04134253-9.35742187.08203125-3.78179043.04930925-7.56299084.07408469-11.34508896.08119583-1.43613404.00670468-2.87225525.02190671-4.30820465.04589081-2.00726277.031645-4.01498028.02868711-6.02248764.02428055-1.14026642.00808685-2.28053284.0161737-3.45535279.02450561-4.006735-.79616789-5.48566877-2.51647573-8.05978393-5.60800171-1.45306681-2.90613361-1.13608042-5.44436407-1.14717102-8.69195556-.00367669-.69576291-.00735338-1.39152582-.01114148-2.10837245-.01105653-2.34293189-.014884-4.68581945-.01868945-7.02877355-.0062632-1.67526898-.01290986-3.35053656-.01991272-5.02580261-.01742368-4.56005152-.02796559-9.12009254-.03620553-13.68016911-.00514751-2.8480596-.01122337-5.69611594-.01751113-8.54417324-.01905633-8.90819063-.03328624-17.81637295-.04161197-26.72458005-.00977354-10.28794925-.03609425-20.57568341-.0765009-30.86355686-.03014775-7.94826552-.04496672-15.89646934-.04828012-23.84479093-.00235211-4.74878798-.0113334-9.49734629-.03646117-14.24607301-.02326218-4.46846094-.02752148-8.9365407-.01723862-13.40504647.00049594-1.63907767-.00584146-3.27817399-.01955604-4.91719436-.01769541-2.24033067-.0106258-4.47928989.00253296-6.71962166-.00238836-1.25288441-.00477671-2.50576881-.00723744-3.79661942.58949149-4.05305336 1.95170675-6.2310192 4.49498463-9.40327072 2.78773422-1.39386711 5.09612181-1.15042372 8.21533203-1.17700195zm6.78466797 19.17700195v147c36.93197201 2.06872086 36.93197201 2.06872086 72-7 .84046875-.42023437 1.6809375-.84046875 2.546875-1.2734375 10.90357968-6.00738626 20.13874696-15.02945421 26.453125-25.7265625.53238281-.90105468 1.06476562-1.80210937 1.61328125-2.73046875 9.40629076-17.29543785 11.42603068-38.2900393 6.82421875-57.39453125-6.37523993-19.92819753-18.90808136-36.16640858-37.28125-46.37109375-22.64616245-10.79056007-47.35280227-6.50390625-72.15625-6.50390625z" fill="#f4f3f3" transform="translate(938.215332 9.822998)"/><path d="m0 0c1.69293686-.01395813 1.69293686-.01395813 3.42007446-.02819824 1.21666352.01639526 2.43332703.03279053 3.68685913.04968262 1.25799408-.00004029 2.51598816-.00008057 3.81210328-.00012208 2.66554234.00536555 5.32890033.02032374 7.99404907.05187989 3.3891217.03943661 6.77712988.04407349 10.16643715.03653717 3.25922834-.00384166 6.51825167.01706981 9.7774105.03670502 1.80677719.00030212 1.80677719.00030212 3.65005494.00061035 14.71690138.20406596 25.74674186 4.87449305 36.45150756 14.96423339 12.40927948 12.82959379 16.90488907 27.63286319 16.6328125 45.14453126-.51601656 14.71602782-7.05466374 27.35543566-17.2890625 37.66015624-10.91767575 10.08571384-23.23179095 14.17829379-37.921875 14.69921876 4.64912151 5.23948614 9.32915182 10.38962609 14.328125 15.296875 1.76476126 1.79774745 3.40631017 3.6666412 5.046875 5.578125 2.59134206 3.00967529 5.29754783 5.83588615 8.125 8.625 3.43093181 3.38448941 6.62538276 6.88365566 9.7578125 10.54296874 1.8146119 2.03838691 3.72185605 3.93133496 5.6796875 5.83203126 2.99248824 2.9749198 5.83132532 6.03231977 8.5625 9.25.6703125.78632812 1.340625 1.57265624 2.03125 2.3828125 1.82426916 3.09543543 1.87857167 4.9515189 1.46875 8.4921875-3.15789473 5.57894736-3.15789473 5.57894736-6 7-3.10998822.5923787-5.13843107.57314671-7.8203125-1.2109375-2.14812532-1.85243197-4.1667016-3.79032783-6.1796875-5.7890625-1.23169922-1.19302735-1.23169922-1.19302735-2.48828125-2.41015626-4.46505817-4.3837521-8.71734956-8.87396155-12.7734375-13.63671874-2.5953435-2.9161163-5.40888033-5.59760459-8.234375-8.2890625-1.50390625-1.6640625-1.50390625-1.6640625-1.50390625-3.6640625-.66 0-1.32 0-2 0-1.48046875-1.50390625-1.48046875-1.50390625-3.1875-3.5625-2.34529758-2.76288681-4.72079404-5.40429757-7.3125-7.9375-2.41332717-2.37042358-4.67271853-4.80736308-6.875-7.375-3.28986449-3.8209637-6.82197508-7.33979423-10.41015625-10.87890626-2.72987238-2.76838909-5.27967578-5.66238655-7.8046875-8.6171875-1.08644723-1.25498198-2.2364128-2.4551628-3.41015625-3.62890624-.00142501.89091842-.00285003 1.78183685-.00431823 2.6997528-.01783941 8.40162268-.0594806 16.8027191-.12777233 25.20408917-.0342716 4.31915112-.05938019 8.63794848-.06346608 12.95724201-.00428268 4.16949081-.03274187 8.33818358-.07787513 12.50742531-.01297614 1.58953068-.01728223 3.17915687-.01272202 4.76873398.00490571 2.2294582-.02117857 4.45658363-.05442238 6.68575477-.00666183 1.26796921-.01332367 2.53593842-.02018738 3.84233093-.80475782 4.19813764-2.36111341 5.68330512-5.63923645 8.33467103-2.0625.6640625-2.0625.6640625-4 .625-.639375.01289062-1.27875.02578124-1.9375.0390625-3.31917786-1.0686747-4.8610366-3.00698441-7.0625-5.6640625-.62641239-3.33431244-.62641239-3.33431244-.62818908-7.21130372-.00709439-.71536595-.01418878-1.43073191-.02149815-2.16777563-.01757127-2.39176856.00051839-4.78191004.01858372-7.17365503-.0051392-1.71674845-.01242048-3.43349162-.02168274-5.15022278-.01852229-4.65918051-.0055703-9.31778913.0140903-13.97694588.016381-4.87570808.00757437-9.75137979.00248074-14.6271038-.00452157-8.18795918.01135282-16.37568996.03929139-24.56359863.03205218-9.46647288.03203637-18.93253381.01478523-28.39903593-.01586355-9.10632382-.00913264-18.2124966.00793701-27.31881381.00687276-3.875519.00583573-7.75091701-.00154495-11.62643432-.00766092-4.56377838.00445687-9.12708793.0318489-13.69078636.00688697-1.67494948.00697845-3.34994272-.00021553-5.0248909-.00868927-2.28656643.00725024-4.57168421.02944947-6.8581295.00280692-1.27940712.00561384-2.55881424.00850582-3.87699128.95580257-6.29634458 3.87082701-8.9625098 10.12578678-8.94954681zm8.38037109 19.61523438v77c1.65-.99 3.3-1.98000001 5-3 3.45410157-.40063477 3.45410157-.40063477 7.390625-.44140626.70404969-.01320785 1.40809937-.02641571 2.13348389-.0400238 2.24200346-.04070139 4.48360352-.06248478 6.72589111-.08106994 20.11040776-.1875655 20.11040776-.1875655 36.953125-10.48046876 8.02631918-8.39790803 10.91940042-17.40901084 10.796875-28.95703124-.85689529-10.31334693-5.20485742-19.18290638-12.75-26.2421875-8.2286556-6.42863719-16.12928214-7.91900478-26.26953125-7.85546876-.76163452.00100709-1.52326904.00201417-2.30798339.00305176-2.82834391.0052077-5.65666624.01916889-8.48498536.0321045-9.4978125.0309375-9.4978125.0309375-19.1875.0625z" fill="#f9f8f9" transform="translate(618.619629 9.384766)"/><path d="m0 0c5.51424719 5.28607144 8.36801251 11.37228191 11.46234131 18.28771973.87741698 1.96069215 1.76843797 3.91469579 2.66314697 5.86755371.96024968 2.09610013 1.9197061 4.19252128 2.87518311 6.290802 3.36291835 7.38155691 6.82848376 14.71350745 10.30288696 22.04309082 1.80538605 3.80951935 3.60616791 7.62121416 5.40737915 11.43270874.35783066.75694656.71566132 1.51389313 1.08433533 2.29377747 4.07503837 8.62186747 8.13308165 17.25171841 12.19090271 25.8816986 4.13450851 8.79252461 8.27729008 17.58105913 12.43218994 26.3639679 2.85004946 6.02510177 5.69373868 12.05318237 8.53436279 18.08273315 1.9965397 4.23568657 4.00275381 8.46659657 6.0174408 12.69367981 1.22956354 2.58411155 2.45151548 5.17177052 3.67158508 7.76037598.83130657 1.75744055 1.67213601 3.51036677 2.51327515 5.26312256 4.69073117 9.98563524 4.69073117 9.98563524 4.8449707 15.73876953-1.58838934 3.57387602-2.71634358 4.81089572-6 7-3.9553093.43947881-6.16761531.54470998-9.5402832-1.66235352-2.71491449-2.58017927-3.91824568-4.70686944-5.44018555-8.11499023-.51989502-1.1442041-1.03979004-2.2884082-1.57543945-3.46728516-.54406709-1.23086725-1.08792693-2.46182613-1.6315918-3.69287109-.56653239-1.25763937-1.13449809-2.51463401-1.70385742-3.77099609-.86431744-1.90749082-1.72775383-3.81531501-2.58631897-5.72540284-3.07906185-6.84333841-6.34075743-13.59706575-9.62657166-20.34320068-.38454345-.79801025-.76908691-1.59602051-1.1652832-2.41821289-.33620361-.69109863-.67240723-1.38219727-1.01879883-2.09423828-.71166992-1.71044922-.71166992-1.71044922-.71166992-3.71044922-30.69.33-61.38.66-93 1-6.27 13.2-12.54 26.4-19 40-6 12-6 12-9 14-4.21178243.46797583-6.28599114.46565795-9.875-1.875-2.51316543-2.51316543-3.03102962-3.48125898-3.54296875-6.98828125.10580859-5.95748379 3.46966502-11.13865858 6.10546875-16.32421875.90302198-1.81726799 1.80066213-3.63713234 2.6980896-5.45716858.61893937-1.25460822 1.23942097-2.50845671 1.86138916-3.76156616 3.11767522-6.29008128 6.06868377-12.65381778 9.00302124-19.03126526 4.96822852-10.75436933 9.9977287-21.47829075 15.0625-32.1875.53844543-1.13862991.53844543-1.13862991 1.08776855-2.30026245 1.4563517-3.07961268 2.91270882-6.15922278 4.36923218-9.23875427 3.42521234-7.24375027 6.83742739-14.49358574 10.24707031-21.74467469 5.69513885-12.11098447 11.39514257-24.21968299 17.10501099-36.32373047.74284068-1.57504081 1.48536217-3.15023222 2.22753906-4.72558593 1.03377189-2.19410881 2.06874194-4.38764864 3.10400391-6.58105469.3003717-.63813629.60074341-1.27627258.91021729-1.93374634 1.55934206-3.30030493 3.13990175-6.59022597 4.74505615-9.86849975.31821716-.65197358.63643432-1.30394715.96429443-1.97567749 2.7463443-4.9844712 6.54133607-5.61162962 11.92730713-4.68301392zm-4 32c-5.7938014 11.4636607-11.38997014 23.01070677-16.875 34.625-.3900824.82495972-.78016479 1.64991943-1.18206787 2.49987793-4.73645029 10.01983367-9.45722596 20.04666896-14.06793213 30.12512207-.40718262.88510254-.81436523 1.77020508-1.23388672 2.68212891-1.93253464 3.87707286-1.93253464 3.87707286-2.64111328 8.06787109h73c-1.67115249-5.05133263-1.67115249-5.05133263-3.7331543-9.84521484-.33233642-.69817841-.66467285-1.39635682-1.00708008-2.11569214-.35771484-.74251007-.71542968-1.48502014-1.08398437-2.25003052-.37874268-.79366974-.75748535-1.58733948-1.14770508-2.40505981-.81346972-1.70383285-1.62848956-3.40692633-2.44491577-5.10934449-2.14914014-4.48151748-4.28721724-8.96831227-6.4269104-13.4543457-.43229416-.90550598-.86458832-1.81101196-1.3099823-2.74395752-4.21776883-8.84016456-8.38358002-17.70430222-12.5337677-26.57635498-.32527679-.69502625-.65055359-1.39005249-.98568726-2.10614014-1.777068-3.79727016-3.55273213-7.59519282-5.32681274-11.39385986-.33 0-.66 0-1 0z" fill="#f4f4f4" transform="translate(824 10)"/><path d="m0 0c6.748455 5.67105289 10.8049396 11.27316289 12.19140625 20.01171875 1.10669726 17.43048189-4.2837477 30.04945463-15.5 43.29296875-5.96535632 6.45936239-12.67703834 12.17490017-19.5 17.70703125.71542969.13535156 1.43085938.27070312 2.16796875.41015625 14.62000392 3.15852607 27.14886952 10.43050924 35.70703125 22.83984375 6.59740671 11.09772591 7.68356412 23.38364796 5 35.875-3.68430341 13.23235733-12.31717307 22.88693437-23.875 29.875-13.00072997 7.02892533-26.67438985 9.13238754-41 5-8.16914787-3.46113897-14.47213329-7.60031737-18-16-.95349397-7.14011767-.16981065-13.07020434 4-19 2.4375-2.75 2.4375-2.75 5-5 .763125-.680625 1.52625-1.36125 2.3125-2.0625 4.15848782-2.99797959 8.46449899-5.9375 13.6875-5.9375l1 5c-.81404297.63615234-.81404297.63615234-1.64453125 1.28515625-5.46516455 4.48045022-8.7384498 8.03812056-9.69921875 15.3203125-.31733287 5.75165835.28009932 10.0481036 3.75390625 14.734375 4.78324011 4.9947839 9.59670037 5.92188427 16.40234375 6.16015625 10.00709246-.32108318 18.98357025-3.35926262 26.1875-10.5 8.27913634-10.31128799 11.07200274-20.86030927 10-34-2.17392423-9.35049337-7.74778188-16.12555734-15.6875-21.3125-12.60683975-6.96793703-27.13225049-7.31924171-40.9453125-4.02734375-2.69914582.38750113-4.74016302.00828592-7.3671875-.66015625 1.1010141-1.91847937 2.20594096-3.83471354 3.3125-5.75.61488281-1.06734375 1.22976563-2.1346875 1.86328125-3.234375 4.10991161-6.79411512 4.10991161-6.79411512 7.06640625-7.7109375 1.30324219-.21269531 1.30324219-.21269531 2.6328125-.4296875 11.30500018-2.77009938 21.02085498-12.25297642 27.125-21.875 7.5073302-13.77183617 10.35451861-26.83489751 6.10546875-42.1953125-2.26767289-5.75331849-6.07397662-10.1485994-11.73046875-12.7421875-11.81605396-3.71986884-22.29945479-2.22135314-33.37109375 3.48046875-19.9240349 12.07601006-31.36359982 35.44120179-37.00390625 57.45703125-6.81962203 29.16252771-15.18600767 71.93088875-1 100 1.21817746 1.85923717 1.21817746 1.85923717 3 3 2.62570704.25069913 2.62570704.25069913 5 0 .65474408-1.68406269 1.29833406-3.37246336 1.9375-5.0625.35964844-.93972656.71929687-1.87945312 1.08984375-2.84765625 8.86116036-28.1493086 2.91029467-65.27580135 1.68432617-94.34326172-.04594803-1.09751587-.09189606-2.19503174-.13923645-3.32580566-.08698253-2.05909477-.17600946-4.11810468-.26754761-6.17700196-.25964204-6.08559919-.3571413-12.15280111-.30488586-18.24377441 1.57914015-.53341184 3.16354387-1.05125763 4.75-1.5625.88171875-.29003906 1.7634375-.58007813 2.671875-.87890625 2.65646816-.5755681 4.04843606-.45107746 6.578125.44140625 8.62309182 37.94160403 12.42575277 94.52659785-6 130-2.89897082 4.4423078-5.57353813 7.31318502-10.375 9.625-5.58274147.57752498-10.02549709.06911051-14.80078125-3.04296875-10.75955954-8.85485408-14.92293525-22.11908412-16.82421875-35.58203125-2.15811145-43.19819747 7.90823144-87.91210127 37.5078125-120.78515625 17.78359449-18.4804438 51.35287444-34.17994854 75.30078125-17.2265625z" fill="#efeeee" transform="translate(339.808594 17.988281)"/><path d="m0 0c.80043732-.01258347 1.60087463-.02516693 2.42556763-.03813171.8640596.01685852 1.7281192.03371704 2.61836242.05108642 1.38134125-.00854255 1.38134125-.00854255 2.79058838-.01725769 3.03860551-.01109851 6.07505073.02094402 9.11346436.05461121 2.11319221.00357718 4.22638925.00493451 6.33958435.00416565 4.42609067.00469012 8.85145184.02952354 13.27735901.06980896 5.67529945.05100134 11.34979824.06244191 17.02530002.06016445 4.36232564.00081544 8.724476.0172638 13.08674336.03900432 2.09278665.00955029 4.18559316.01545996 6.27840042.01768113 2.92309397.00649983 5.84533644.03274912 8.7682476.06479072 1.29912575-.00203934 1.29912575-.00203934 2.62449646-.00411987 3.49812994.05611512 5.85687278.11789888 8.98864746 1.76011658 2.98629427 3.38413893 2.54201651 7.64496929 2.29481507 11.92979431-1.00948897 3.41673189-1.71325389 4.04164383-4.8125 5.75-2.73935975.27497105-5.24551811.37979739-7.98144531.34057617-1.20056534.00065712-1.20056534.00065712-2.42538453.00132751-2.64068144-.00208697-5.28072488-.02541338-7.92129516-.04893493-1.8327398-.00559629-3.66548409-.00986623-5.49822998-.01286316-4.82025577-.0114462-9.64023971-.04091148-14.46038819-.07411194-5.78526187-.03610575-11.5706147-.04986311-17.35595703-.06735992-8.78595557-.02907708-17.57131488-.08656578-26.3572998-.13863373v64c4.64578125-.04640625 9.2915625-.0928125 14.078125-.140625 2.94403277-.02043938 5.88797801-.03969503 8.83203125-.0546875 4.67254819-.02390753 9.34478272-.05218295 14.01708984-.10644531 3.76717311-.04347647 7.53400985-.06738297 11.30141449-.07775116 1.4369486-.00738827 2.87387889-.0218161 4.31068421-.04341126 2.01306946-.0290518 4.02647774-.03071382 6.03975677-.03118133 1.14583557-.00888245 2.29167114-.0177649 3.472229-.02691651 3.58824141.58535179 4.73477843 1.65948901 6.94866944 4.48101807 1.4240665 3.91423743 1.41110167 7.09949158-.3125 10.875-1.6875 2.125-1.6875 2.125-3.6875 4.125-2.7081604.24050903-2.7081604.24050903-6.19384766.22705078-1.95179672-.00022659-1.95179672-.00022659-3.94302368-.00045776-1.42573193-.01021409-2.85146231-.0206461-4.27719116-.03128052-1.45445563-.00372955-2.90891377-.0065768-4.3633728-.00857544-3.83054526-.00764106-7.66093916-.02729349-11.49142457-.04940796-4.59465405-.02404269-9.18935867-.03323717-13.78405761-.04490662-6.98246615-.01940317-13.96460012-.05772213-20.94708252-.09242248v64c5.94515625-.05800781 11.8903125-.11601563 18.015625-.17578125 3.76435016-.02554506 7.5285936-.04961434 11.29296875-.06835938 5.97629972-.02990039 11.95221676-.06528762 17.92822265-.13305664 4.81756536-.05429075 9.63472043-.08421715 14.45256806-.09718895 1.83887696-.00924517 3.67773123-.02729897 5.51643371-.05426407 2.57414172-.03625224 5.1465841-.04129681 7.72093964-.03897667 1.14259529-.02696456 1.14259529-.02696456 2.30827332-.05447387 3.85908332.03768393 5.42488488.29122866 8.23854065 3.02867126 2.17639088 3.69772806 2.2419581 6.42652026 1.52642822 10.59342957-2.13888889 4.56944444-2.13888889 4.56944444-5 6-2.93299357.11433067-5.84277382.16787058-8.77661133.17700195-.90909622.0065712-1.81819244.0131424-2.75483704.01991272-3.01686174.01975583-6.03367366.0314004-9.05058288.04136658-1.02898596.00407552-2.05797192.00815105-3.11813927.01235008-5.44572564.02087004-10.891426.03516797-16.337183.04453468-5.62930469.01106912-11.2582146.04547232-16.88737964.0851717-4.32455724.02612513-8.64901981.03451648-12.97364903.03810978-2.07525424.00487622-4.15050396.01651952-6.2256813.035038-2.90403355.02430495-5.80703782.0234422-8.71114159.01648521-1.28677643.01921509-1.28677643.01921509-2.59954834.03881836-4.0570529-.03543962-6.06618284-.19307179-9.57554626-2.41316223-3.41281631-3.59450585-3.12211333-5.98125202-3.14360047-10.86351013-.00438225-.70393002-.00876451-1.40786003-.01327956-2.13312126-.01340786-2.37056623-.0195713-4.74109528-.02569139-7.11169075-.00789942-1.69497344-.01616827-3.3899452-.02478027-5.08491517-.02623927-5.57682179-.04152983-11.15365116-.05578613-16.73051452-.00535896-1.91849523-.01073646-3.83699041-.01613236-5.75548554-.02163178-7.97965214-.04036896-15.95930224-.05162239-23.93897628-.01624175-11.44231523-.04942158-22.884291-.10640084-34.32647825-.03868238-8.04168121-.05822985-16.08327157-.06351972-24.12504339-.00365589-4.80473652-.01570216-9.60911114-.04810274-14.41374707-.0300506-4.52104611-.03640331-9.04151079-.02461624-13.56263542.00022099-1.65843751-.00810522-3.31690176-.02565384-4.97524643-.02268002-2.26684801-.01440484-4.53158556.00148392-6.79844475-.00331015-1.2676331-.00662029-2.53526619-.01003075-3.84131241.94558294-5.25475599 3.84446284-10.19030799 9.79895592-10.17621994z" fill="#fdfdfd" transform="translate(1106.180923 9.258286)"/><path d="m0 0c1.09470612-.00861557 2.18941223-.01723114 3.31729126-.02610779 3.62307294-.02272532 7.2453765-.01590841 10.86849976-.00685119 2.51579519-.00523281 5.03158842-.01150803 7.54737854-.01878357 5.2750523-.01041649 10.54990423-.0061534 15.82493591.0087738 6.09301626.01691926 12.18531599.00108998 18.27825397-.03122288 5.86695283-.02993283 11.73362834-.0318771 17.60063893-.02250141 2.4938996.00082096 4.98781397-.0060699 7.48167038-.02077103 3.48597659-.01739758 6.9704168-.00294067 10.45633125.01980782 1.03237289-.0116922 2.06474579-.0233844 3.12840271-.03543091 4.7669523.0633694 7.00495378.09843238 10.88711548 3.06340027 1.91058178 2.67151344 2.54365502 3.86690043 2.48667908 7.10313416.01933593 1.09828125.01933593 1.09828125.0390625 2.21875-1.0582557 3.63541956-2.65127146 4.98389994-5.6640625 7.28125-3.59495125.69404841-7.11992018.58225218-10.76953125.48828125-1.03613938-.00707474-2.07227875-.01414948-3.13981629-.0214386-3.30179243-.02793658-6.60187462-.09067635-9.90315246-.15434265-2.24151193-.02508371-4.4830505-.04789674-6.72460938-.06835938-5.48821143-.05505856-10.97542883-.13867782-16.46289062-.24414062.00276537.8199882.00553075 1.6399764.00837993 2.48481273.06623625 19.94676235.11588917 39.89350577.14705658 59.84035492.01547272 9.64612686.03656999 19.29218033.07088184 28.93826008.02988995 8.40695282.0492537 16.81385249.05594713 25.22085696.00391294 4.45197271.01311732 8.90379337.03492469 13.35571737.02035875 4.19013284.02664487 8.38005097.02213287 12.57022857.00082548 1.53790389.00679485 3.07581495.01829338 4.61367607.01493503 2.10046427.01133414 4.2001188.00314713 6.30060196.00276537 1.17528606.00553075 2.35057211.00837993 3.5614729-.41001379 3.45879191-1.29732533 5.34037342-3.36914348 8.11401844-3.15796107 1.57898053-6.60670636 1.8192817-10 1-3.16362841-2.57326731-4.81723254-4.07028739-5.61523915-8.12963582.00691345-1.77399059.00691345-1.77399059.01396656-3.58381938-.00427212-.66172406-.00854425-1.32344811-.01294583-2.00522441-.00821478-2.21011064.01922529-4.41830948.04659146-6.62824422.00141082-1.58692378.00061783-3.17385083-.00221252-4.76077271-.00143426-4.30357206.02795664-8.60644696.06286979-12.90985703.0312621-4.49897021.03419411-8.99795651.04012703-13.49701858.0155389-8.51752772.05656793-17.03473446.10674745-25.55212086.05589208-9.6975886.08337962-19.39519255.10847718-29.09290213.05225914-19.94698075.1402023-39.89367259.25161803-59.84040486-.57771653.01110305-1.15543305.02220611-1.75065613.03364563-6.01825993.11070248-12.03623023.18606641-18.05525208.24101257-2.24556223.02512903-4.49104279.05923795-6.73632812.10253906-3.22961585.06072049-6.45814951.08902905-9.68823242.11108399-1.0022612.02580642-2.0045224.05161285-3.03715516.07820129-6.98028219.00280262-6.98028219.00280262-10.86616516-2.93855286-2.03795417-2.86977221-2.52010448-4.21209895-2.42871093-7.69042968-.00128907-.83660157-.00257813-1.67320313-.00390625-2.53515625 1.86224612-7.89849217 8.65594166-6.97779718 15.31420898-6.93579102z" fill="#fdfdfd" transform="translate(478.747803 9.466553)"/><path d="m0 0h10v192c-3.3 0-6.6 0-10 0 0-63.36 0-126.72 0-192z" fill="#fdfcfd" transform="translate(415 3)"/><path d="m0 0c5.22518286 3.11117758 8.8596663 7.09424938 11.921875 12.34375 1.68146 6.72583999 1.43351101 12.8612034-2.04296875 18.9296875-3.34237606 4.79245306-6.62748521 8.0184452-12.26953125 9.8203125-7.2096009.8769681-13.47778352.89320004-19.421875-3.58984375-5.35871492-4.78835665-8.28540087-10.48402727-8.71484375-17.7109375.35150356-5.81487311 2.36341993-10.28099385 6.13671875-14.69921875 6.80991244-6.01840946 15.62249115-8.41761773 24.390625-5.09375zm-23.390625 12.09375c-1.85421739 5.56265218-1.95290222 11.79099939.375 17.1875.53625.598125 1.0725 1.19625 1.625 1.8125h2v2c5.24500222 3.31263298 9.95905839 3.88548004 16 3 4.42484878-2.21242439 7.19476657-4.94799616 10-9 1.44865941-4.34597823 1.88893053-8.60375247.28125-12.9375-2.67142473-4.9981495-5.90467487-8.27030829-11.28125-10.0625-8.39291388-.97517666-13.42135258 1.59488629-19 8z" fill="#dcdbdc" transform="translate(1266.390625 103.90625)"/><path d="m0 0c4.03657082.51485318 5.95214477 1.46352372 8.76953125 4.37890625.66064453.67353516 1.32128906 1.34707031 2.00195313 2.04101563.67353515.70705078 1.34707031 1.41410156 2.04101562 2.14257812.69287109.71091797 1.38574219 1.42183594 2.09960938 2.15429688 1.70534232 1.75238624 3.40064238 3.51341781 5.08789062 5.28320312 3.05777443-1.35443086 5.04421157-2.84704736 7.3125-5.29296875.60070313-.62970703 1.20140625-1.25941406 1.8203125-1.90820313 1.25065193-1.33045294 2.49541254-2.66646715 3.734375-4.0078125.60070313-.62583984 1.20140625-1.25167968 1.8203125-1.89648437.81017578-.86854614.81017578-.86854614 1.63671875-1.75463867 1.67578125-1.13989258 1.67578125-1.13989258 3.8828125-.82080078.59167969.2246997 1.18335938.44939941 1.79296875.6809082-.56620301 3.77468671-2.12268981 5.47551893-4.81640625 8.109375-.76376953.75410156-1.52753906 1.50820313-2.31445313 2.28515625-.8024414.77730469-1.60488281 1.55460937-2.43164062 2.35546875-1.20946289 1.18916016-1.20946289 1.18916016-2.44335938 2.40234375-1.99137963 1.9560297-3.99190087 3.90274468-5.99414062 5.84765625 5.94.33 11.88.66 18 1-.495 2.475-.495 2.475-1 5-13.53 0-27.06 0-41 0 0-1.65 0-3.3 0-5l17-1c-.99-.99-1.98-1.98-3-3 0-.66 0-1.32 0-2-.639375-.268125-1.27875-.53625-1.9375-.8125-2.0625-1.1875-2.0625-1.1875-3.0625-4.1875-.5775-.28875-1.155-.5775-1.75-.875-3.11172309-1.55586155-5.02365528-3.46575492-7.25-6.125-.3125-2.8125-.3125-2.8125 0-5z" fill="#e2e2e2" transform="translate(1237 7)"/><path d="m0 0c4.52071021-.08751499 9.0412007-.1405661 13.5625-.1875 1.91522461-.03770508 1.91522461-.03770508 3.86914062-.07617188 13.74301814-.10708845 13.74301814-.10708845 19.31054688 4.79882813 4.01687051 5.41584955 5.07284175 8.75217229 4.2578125 15.46484375-2.2146685 4.34731225-4.80721395 7.48432837-9 10-6.47635145 1.31020527-13.23352315 1.18283075-19.8125 1.1875-.92748047.01224609-1.85496094.02449219-2.81054688.03710938-1.34094726.00290039-1.34094726.00290039-2.70898437.00585937-.80155518.00410889-1.60311035.00821777-2.42895508.01245117-2.47135605-.26812771-4.0993998-1.00844497-6.23901367-2.24291992l2-4c.8878418-.0093457 1.77568359-.01869141 2.69042969-.02832031 3.3030295-.0440865 6.60477038-.10572715 9.90722656-.17919922 1.42761312-.02817658 2.85538128-.04940774 4.28320313-.06347656 2.05614394-.02147783 4.11043064-.06814365 6.16601562-.11962891 1.23588867-.02094727 2.47177734-.04189453 3.74511719-.06347656 3.7677601-.64115005 4.947565-1.5161167 7.20800781-4.54589844 1.02361197-3.7532439 1.28369136-6.08813492.125-9.8125-3.63429739-3.74118849-8.68289176-4.07248954-13.76367188-4.31176758-2.72730675-.00074165-5.44764256.04687409-8.17382812.12426758-1.83960493.05113565-3.6794912.09316081-5.51953125.125-.80155518.02320313-1.60311035.04640625-2.42895508.0703125-2.49711553-.21782711-4.08665039-.9451761-6.23901367-2.1953125z" fill="#d2d1d2" transform="translate(1238 47)"/><path d="m0 0 4 1c-.46906259 2.53293799-.9862506 3.98185079-2.5625 6.0625-2.23479236 4.5667496-2.07564955 8.94966441-1.4375 13.9375 2.11984486 4.8579778 5.05091265 7.25201949 9.78125 9.37890625 4.8779947 1.365495 9.3938752.12584635 14.15625-1.19140625 2.53344189-1.45864836 3.05410527-2.47259111 4.0625-5.1875.37125-.763125.7425-1.52625 1.125-2.3125 1.51759271-4.6611776 1.47796854-8.31711696-.5-12.8125-.53625-.94875-1.0725-1.8975-1.625-2.875-.68528045-1.65910004-1.35891863-3.32332564-2-5 1.65-.33 3.3-.66 5-1 5.06710232 5.74271597 6.50114799 10.93296703 6.30859375 18.4765625-.71494761 5.84628043-3.3974215 9.96390244-7.68359375 13.8984375-5.37802258 4.20193696-10.84595763 5.4165266-17.625 4.625-6.46444215-1.35963411-11.16088934-4.635348-15-10-3.17055029-6.20371006-3.39222287-11.76887896-1.8828125-18.50390625 1.2989722-3.67275769 3.10659164-5.79293134 5.8828125-8.49609375z" fill="#d9d8d9" transform="translate(1243 154)"/><path d="m0 0c2.912575.08566397 4.56798024.57910955 6.66796875 2.625 1.49294897 1.75891375 2.93639387 3.53813019 4.33203125 5.375-.66 1.32-1.32 2.64-2 4-3.83776322-1.56353316-6.34999338-3.83471431-9-7-.3125-2.8125-.3125-2.8125 0-5z" fill="#cfcecf" transform="translate(1237 7)"/><path d="m0 0c2.125.375 2.125.375 4 1 .38218767 1.65614657.71395102 3.32457024 1 5-1 1-1 1-3.5625 1.0625-1.2065625-.0309375-1.2065625-.0309375-2.4375-.0625-.625-2.375-.625-2.375-1-5z" fill="#d5d3d4" transform="translate(1274 199)"/><path d="m0 0c2.125.375 2.125.375 4 1 .38218767 1.65614657.71395102 3.32457024 1 5-1 1-1 1-3.5625 1.0625-1.2065625-.0309375-1.2065625-.0309375-2.4375-.0625-.625-2.375-.625-2.375-1-5z" fill="#d5d4d5" transform="translate(1274 87)"/></svg>